<?xml version="1.0" standalone="no"?>
<!DOCTYPE svg PUBLIC "-//W3C//DTD SVG 20010904//EN"
 "http://www.w3.org/TR/2001/REC-SVG-20010904/DTD/svg10.dtd">
<svg version="1.0" xmlns="http://www.w3.org/2000/svg"
 width="300.000000pt" height="300.000000pt" viewBox="0 0 300.000000 300.000000"
 preserveAspectRatio="xMidYMid meet">
<metadata>
Created by potrace 1.10, written by Peter Selinger 2001-2011
</metadata>
<g transform="translate(0.000000,300.000000) scale(0.100000,-0.100000)"
fill="#000000" stroke="none">
<path d="M1459 2858 c-11 -13 -90 -117 -177 -233 l-157 -210 -109 -5 -110 -5
-65 -90 c-263 -364 -272 -378 -266 -404 9 -40 41 -61 94 -61 l46 0 0 -45 0
-45 -301 0 c-383 0 -354 14 -354 -176 0 -121 2 -136 20 -154 11 -11 27 -20 35
-20 13 0 15 -69 15 -564 0 -522 1 -565 18 -585 l17 -22 1342 -1 c1295 -2 1343
-1 1362 17 21 18 21 26 21 587 0 545 1 568 18 568 42 0 57 36 60 142 5 118 -2
162 -29 189 -18 18 -35 19 -324 19 l-305 0 0 45 0 45 45 0 c53 0 95 32 95 72
0 15 -64 106 -181 256 l-181 232 -82 0 -82 0 -188 235 c-180 226 -189 235
-223 235 -23 0 -41 -7 -54 -22z m254 -226 c96 -120 181 -223 188 -229 8 -6 50
-13 94 -16 88 -6 86 -5 169 -113 17 -23 82 -107 144 -187 61 -81 112 -155 112
-166 0 -25 -28 -41 -71 -41 -46 0 -69 -25 -69 -75 0 -77 -3 -76 333 -76 266 0
296 -1 310 -17 11 -13 15 -44 15 -131 l1 -113 -35 -32 -34 -31 -1 -552 c-1
-437 -4 -556 -14 -570 -13 -17 -80 -18 -1339 -20 -1162 -1 -1328 1 -1341 14
-17 16 -16 -11 -15 493 1 195 2 360 2 365 -1 47 -14 255 -17 272 -3 12 -14 24
-24 28 -11 3 -22 13 -26 23 -11 28 -5 244 6 259 9 10 76 13 312 12 341 -1 327
-5 327 81 0 57 -12 70 -66 70 -47 0 -75 20 -69 50 2 10 72 113 155 228 102
143 159 213 178 221 15 6 61 10 102 10 41 -1 81 0 87 0 7 1 90 105 184 231
153 206 174 230 199 230 25 0 50 -26 203 -218z"/>
<path d="M1447 2653 c-80 -102 -178 -234 -184 -249 -2 -7 6 -19 19 -28 19 -12
62 -15 241 -14 193 1 221 3 240 19 l22 17 -25 34 c-73 99 -234 288 -246 288
-7 0 -37 -30 -67 -67z m192 -110 l121 -153 -239 0 -239 0 116 154 c64 85 117
154 118 153 1 -1 56 -71 123 -154z"/>
<path d="M1623 2302 c-81 -5 -84 -17 -33 -121 47 -96 62 -111 124 -116 85 -8
136 -17 142 -26 3 -5 -9 -26 -26 -48 -26 -32 -30 -43 -21 -59 8 -15 18 -19 42
-16 39 5 65 27 90 77 11 20 26 37 34 37 8 0 23 -17 34 -37 27 -54 49 -70 105
-76 47 -5 53 -3 98 35 57 49 63 34 -79 215 l-104 133 -92 0 c-51 1 -130 2
-177 3 -47 1 -108 1 -137 -1z m187 -32 l209 0 87 -112 c48 -62 98 -125 111
-139 l24 -26 -26 -7 c-14 -4 -30 -17 -36 -29 -10 -22 -13 -23 -65 -12 -52 10
-57 14 -82 60 -23 43 -31 50 -57 50 -26 0 -34 -7 -57 -50 -25 -46 -45 -61 -87
-64 -7 -1 3 17 23 39 41 46 43 53 17 79 -13 13 -47 22 -115 31 l-97 13 -42 81
c-54 105 -52 100 -33 93 10 -4 111 -7 226 -7z"/>
<path d="M964 2283 c-17 -15 -177 -234 -198 -270 -8 -15 14 -53 31 -53 6 0 21
-14 33 -31 18 -24 27 -29 49 -24 14 3 35 7 46 9 49 10 74 27 97 68 31 57 50
59 73 8 20 -45 54 -68 107 -72 65 -4 75 22 28 74 -17 18 -29 37 -27 43 2 5 47
17 99 25 59 9 103 22 115 32 10 9 36 53 57 97 57 116 68 111 -239 111 -226 0
-254 -2 -271 -17z m482 -91 l-45 -89 -93 -12 c-146 -20 -168 -45 -98 -116 l40
-41 -54 10 c-52 10 -55 12 -80 63 -23 47 -29 53 -56 53 -27 0 -33 -6 -57 -54
-25 -52 -27 -54 -77 -61 -28 -3 -56 -11 -63 -17 -10 -8 -13 -6 -13 7 0 25 -29
55 -51 55 -14 0 6 34 82 140 l100 140 247 3 c136 1 250 3 255 5 4 1 -13 -38
-37 -86z"/>
<path d="M1509 2153 c-8 -9 -25 -36 -39 -62 -24 -43 -28 -46 -80 -54 -32 -4
-63 -15 -74 -27 -19 -19 -19 -20 28 -70 l47 -50 -3 -71 c-4 -94 8 -103 85 -64
l56 29 57 -28 c79 -39 89 -31 89 68 l0 76 43 41 c23 22 42 44 42 49 0 17 -36
36 -89 45 -54 10 -57 12 -84 62 -33 62 -58 80 -78 56z m50 -59 c29 -67 48 -80
124 -89 l59 -8 -53 -53 c-51 -51 -52 -54 -46 -98 4 -25 10 -58 13 -73 l7 -26
-58 31 c-32 18 -67 32 -77 32 -10 0 -44 -14 -75 -32 l-56 -32 6 25 c3 13 9 46
13 72 7 49 6 49 -46 102 l-52 52 59 8 c76 9 95 22 124 89 13 31 26 56 29 56 3
0 16 -25 29 -56z"/>
<path d="M1035 1910 c-10 -11 -24 -20 -30 -20 -25 0 -37 -27 -24 -52 7 -13 12
-27 11 -31 -1 -4 2 -16 8 -27 8 -15 20 -19 62 -17 34 1 53 7 58 17 17 34 27
79 21 88 -6 10 -78 62 -85 62 -2 0 -11 -9 -21 -20z m35 -15 c0 -17 36 -39 50
-30 16 10 11 -11 -6 -26 -9 -7 -14 -22 -11 -36 5 -26 3 -27 -24 -13 -13 8 -25
7 -39 0 -18 -10 -20 -8 -20 20 0 18 -6 33 -15 36 -8 4 -15 10 -15 16 0 5 4 6
10 3 14 -9 50 13 50 30 0 8 5 15 10 15 6 0 10 -7 10 -15z"/>
<path d="M1262 1918 c-7 -7 -12 -16 -12 -21 0 -6 -18 -29 -39 -52 -39 -42 -39
-44 -34 -104 7 -71 1 -74 -72 -39 l-45 22 -45 -22 c-73 -35 -79 -32 -71 39 7
62 7 62 -30 100 -21 22 -43 39 -50 39 -34 0 -35 -18 -35 -766 0 -622 2 -739
14 -751 12 -12 118 -14 667 -14 608 0 654 1 672 18 19 17 19 35 16 742 -2 642
-5 727 -19 744 -15 19 -16 19 -53 -14 l-38 -33 5 -63 c7 -72 1 -76 -68 -43
-51 24 -63 24 -103 0 -18 -11 -41 -20 -51 -20 -16 0 -18 7 -14 64 l5 64 -50
51 c-53 54 -70 57 -92 16 -10 -19 -10 -38 4 -104 9 -45 16 -88 16 -96 0 -27
-37 -26 -87 1 -26 15 -64 36 -84 47 l-37 20 -93 -47 c-51 -25 -98 -46 -106
-46 -17 0 -16 17 2 113 20 103 20 104 -14 138 -33 32 -41 35 -59 17z m44 -163
c-26 -155 -11 -165 135 -89 l89 46 89 -46 c143 -74 161 -63 135 86 -9 51 -18
96 -20 99 -2 4 2 12 9 18 10 8 23 0 55 -32 l42 -43 -10 -53 c-17 -92 21 -116
104 -67 l42 24 39 -24 c83 -50 122 -24 105 67 -10 52 -9 54 20 83 l30 31 0
-740 0 -740 -655 2 -655 3 -2 740 c-2 407 -2 740 -1 740 0 0 16 -15 35 -34 34
-34 35 -35 24 -86 -17 -87 16 -109 101 -67 l48 24 40 -23 c79 -46 111 -26 100
61 -6 55 -6 57 35 101 28 31 40 51 35 62 -4 11 4 7 21 -10 l27 -27 -17 -106z"/>
<path d="M910 1551 c-6 -12 -10 -125 -10 -296 0 -171 4 -284 10 -296 10 -17
23 -19 163 -19 106 0 157 4 165 12 17 17 17 589 0 606 -8 8 -59 12 -165 12
-140 0 -153 -2 -163 -19z m315 -296 l0 -280 -60 -5 c-33 -3 -98 -3 -145 0
l-85 5 -3 283 -2 283 147 -3 148 -3 0 -280z"/>
<path d="M987 1492 c-14 -15 -17 -50 -18 -236 -1 -264 -4 -257 109 -255 58 1
79 6 93 20 16 16 25 53 20 82 -1 5 -4 92 -6 194 -3 118 -9 190 -16 199 -18 22
-161 19 -182 -4z m173 -237 l0 -225 -82 0 -83 0 0 225 0 225 83 0 82 0 0 -225z"/>
<path d="M1337 1552 c-15 -16 -17 -52 -17 -300 0 -242 2 -283 16 -296 13 -13
44 -16 179 -16 152 0 165 1 175 19 6 12 10 125 10 296 0 171 -4 284 -10 296
-10 18 -23 19 -174 19 -145 0 -165 -2 -179 -18z m296 -9 c38 -6 38 -6 37 -52
-1 -25 -1 -50 -1 -56 3 -24 0 -459 -3 -463 -9 -8 -280 -11 -295 -2 -16 8 -17
35 -17 287 l1 278 80 6 c128 9 158 9 198 2z"/>
<path d="M1413 1495 c-23 -16 -23 -19 -23 -239 0 -167 3 -226 13 -233 6 -6 53
-13 103 -16 133 -9 128 -20 125 251 -1 155 -5 220 -14 228 -7 7 -50 15 -97 18
-69 6 -89 4 -107 -9z m197 -240 l0 -225 -95 0 -95 0 0 225 0 225 95 0 95 0 0
-225z"/>
<path d="M1782 1558 c-17 -17 -17 -589 0 -606 17 -17 309 -17 326 0 17 17 17
589 0 606 -8 8 -59 12 -163 12 -104 0 -155 -4 -163 -12z m294 -19 c11 -9 14
-68 14 -290 l0 -279 -138 0 c-76 0 -142 4 -147 9 -6 6 -9 121 -7 285 l3 275
37 3 c105 9 226 7 238 -3z"/>
<path d="M1861 1493 c-19 -17 -21 -31 -27 -231 -7 -213 -7 -213 16 -237 21
-22 32 -25 95 -25 109 0 107 -7 108 256 1 215 1 217 -22 235 -32 26 -140 27
-170 2z m169 -238 l0 -225 -85 0 -85 0 0 225 0 225 85 0 85 0 0 -225z"/>
<path d="M910 821 c-5 -11 -10 -81 -10 -159 0 -181 -9 -172 176 -172 97 0 146
4 157 13 16 11 17 30 15 172 l-3 160 -162 3 c-152 2 -163 1 -173 -17z m302
-12 c14 -8 17 -27 17 -137 0 -70 -4 -134 -8 -140 -5 -9 -45 -12 -147 -10
l-139 3 -3 139 c-2 99 1 142 9 147 17 10 251 9 271 -2z"/>
<path d="M987 762 c-13 -14 -17 -38 -17 -97 0 -107 5 -111 113 -105 47 3 88 8
91 11 13 13 10 177 -3 193 -21 24 -162 23 -184 -2z m173 -94 l0 -83 -81 2 -81
1 -1 81 -2 81 83 0 82 0 0 -82z"/>
<path d="M1330 821 c-5 -11 -10 -81 -10 -155 0 -184 -9 -176 193 -176 198 0
187 -11 187 181 0 100 -4 149 -12 157 -8 8 -63 12 -180 12 -155 0 -168 -1
-178 -19z m328 -10 c9 -5 12 -46 10 -147 l-3 -139 -155 0 -155 0 -3 133 c-2
88 1 138 8 147 8 10 46 13 149 13 75 0 143 -3 149 -7z"/>
<path d="M1407 762 c-13 -14 -17 -38 -17 -93 0 -109 6 -115 122 -111 51 2 98
8 105 14 9 7 13 40 13 99 0 107 -2 109 -123 109 -69 0 -87 -3 -100 -18z m201
-93 l-3 -81 -93 -1 -92 -2 0 83 0 82 95 0 96 0 -3 -81z"/>
<path d="M1782 828 c-8 -8 -12 -58 -12 -159 0 -121 3 -150 16 -163 23 -23 295
-23 318 0 13 13 16 42 16 163 0 101 -4 151 -12 159 -17 17 -309 17 -326 0z
m296 -17 c13 -8 19 -261 7 -280 -3 -6 -67 -9 -143 -8 l-137 2 -3 134 c-2 90 1
138 9 147 9 11 41 14 133 13 67 0 128 -4 134 -8z"/>
<path d="M1852 767 c-16 -19 -18 -173 -2 -192 18 -22 172 -22 191 1 17 21 16
169 -1 189 -16 20 -172 21 -188 2z m178 -99 l0 -83 -85 0 -85 0 0 83 0 82 85
0 85 0 0 -82z"/>
<path d="M1926 1896 c-32 -28 -37 -37 -30 -57 4 -13 9 -30 10 -37 7 -41 86
-64 116 -34 10 10 37 78 38 94 0 7 -81 68 -89 68 -4 -1 -23 -16 -45 -34z m100
-32 c19 7 18 -8 -2 -25 -10 -8 -13 -21 -9 -37 5 -21 3 -23 -12 -17 -23 9 -33
9 -57 0 -15 -7 -17 -5 -12 12 3 10 0 28 -9 39 -18 24 -19 35 -1 28 8 -3 22 5
32 19 l19 24 18 -24 c11 -13 26 -22 33 -19z"/>
<path d="M215 1642 c-33 -7 -45 -23 -43 -56 4 -67 1 -66 308 -66 256 0 278 1
293 18 26 28 22 78 -7 98 -21 13 -60 15 -278 13 -139 -2 -262 -5 -273 -7z
m545 -57 l0 -35 -280 0 -280 0 0 35 0 35 280 0 280 0 0 -35z"/>
<path d="M2250 1632 c-16 -18 -15 -93 2 -103 15 -10 22 -10 341 -10 160 0 233
3 243 12 21 17 18 82 -5 103 -16 15 -47 16 -293 14 -214 -2 -278 -6 -288 -16z
m575 -47 l0 -35 -282 0 -283 0 0 35 0 35 283 0 282 0 0 -35z"/>
<path d="M261 1444 c-21 -15 -21 -21 -20 -227 0 -117 0 -216 -1 -222 -1 -5 -2
-146 -1 -312 1 -334 1 -333 65 -333 62 0 65 11 64 252 0 119 3 221 6 227 4 7
58 10 146 9 l140 -2 0 -61 c1 -33 0 -133 0 -223 -1 -142 1 -166 17 -185 14
-17 27 -22 53 -20 66 6 62 -45 60 828 -1 210 -3 252 -16 266 -14 16 -42 17
-253 18 -196 0 -242 -3 -260 -15z m499 -542 l0 -528 -35 0 -35 0 0 238 c0 224
-1 238 -19 248 -11 5 -82 10 -160 10 -114 0 -142 -3 -155 -16 -14 -13 -16 -50
-16 -248 l0 -232 -35 0 -35 0 0 528 0 528 245 0 245 0 0 -528z"/>
<path d="M352 1298 c-8 -8 -12 -58 -12 -159 0 -121 3 -150 16 -163 23 -23 295
-23 318 0 13 13 16 42 16 163 0 101 -4 151 -12 159 -17 17 -309 17 -326 0z
m241 -17 l67 -1 0 -145 0 -145 -139 0 c-147 0 -156 3 -154 47 1 13 1 72 2 132
1 125 -4 118 96 115 33 -1 90 -2 128 -3z"/>
<path d="M431 1233 c-18 -15 -21 -30 -22 -96 -2 -103 4 -109 106 -108 104 1
112 8 108 106 -3 109 -8 115 -97 115 -56 0 -79 -4 -95 -17z m169 -95 l0 -83
-85 0 -85 0 0 83 0 82 85 0 85 0 0 -82z"/>
<path d="M2249 1444 c-10 -12 -14 -129 -17 -536 -3 -483 -3 -521 14 -539 20
-22 88 -26 101 -7 4 7 10 117 13 243 l5 230 140 2 c91 2 142 -1 146 -8 4 -6 7
-110 8 -231 0 -137 5 -226 11 -233 17 -20 69 -24 91 -6 19 15 19 32 20 356 0
734 0 712 -17 729 -23 23 -495 23 -515 0z m504 -541 l-3 -527 -35 -2 -35 -1 0
238 c0 225 -1 239 -19 249 -11 5 -81 10 -157 10 -114 0 -141 -3 -156 -17 -16
-15 -18 -36 -18 -248 l0 -231 -35 0 -35 0 0 528 0 528 248 0 247 0 -2 -527z"/>
<path d="M2340 1291 c-5 -11 -10 -82 -10 -159 0 -180 -8 -172 174 -172 76 0
146 5 157 10 17 10 19 23 19 163 0 106 -4 157 -12 165 -8 8 -59 12 -165 12
-140 0 -153 -2 -163 -19z m317 -136 c3 -182 18 -166 -150 -163 l-142 3 0 140
0 140 105 5 c58 3 123 3 145 0 l40 -5 2 -120z"/>
<path d="M2417 1232 c-23 -25 -24 -173 -2 -192 21 -18 165 -14 184 5 18 17 17
170 0 191 -8 10 -36 14 -89 14 -62 0 -80 -4 -93 -18z m173 -94 l0 -83 -81 1
-81 2 -1 81 -2 81 83 0 82 0 0 -82z"/>
<path d="M2488 802 c-38 -2 -71 -8 -77 -16 -17 -20 -16 -405 1 -422 9 -9 41
-14 91 -15 123 -2 120 -7 113 230 -4 107 -11 200 -17 207 -14 16 -34 19 -111
16z m102 -227 l0 -200 -80 2 -81 1 0 196 c0 108 1 197 1 199 0 1 36 2 80 2
l80 0 0 -200z"/>
<path d="M421 787 c-7 -9 -11 -84 -13 -211 -2 -236 -6 -228 106 -228 120 0
117 -6 111 230 -3 123 -9 200 -16 208 -16 19 -172 19 -188 1z m179 -212 l0
-200 -85 0 -85 0 0 200 0 200 85 0 85 0 0 -200z"/>
<path d="M161 1894 c0 -11 3 -14 6 -6 3 7 2 16 -1 19 -3 4 -6 -2 -5 -13z"/>
</g>
</svg>
